<svg height="512" viewBox="0 0 58 59" width="512" xmlns="http://www.w3.org/2000/svg"><g id="Page-1" fill="none" fill-rule="evenodd"><g id="025---Equipment" fill-rule="nonzero"><path id="Shape" d="m27 14c-.5522847 0-1-.4477153-1-1v-12c0-.55228475.4477153-1 1-1s1 .44771525 1 1v12c0 .5522847-.4477153 1-1 1z" fill="#a5a5a4"/><path id="Shape" d="m32 20-5 2-5-2 .75-5.28c.1435008-.9842719.9853323-1.7155598 1.98-1.72h4.54c.9946677.0044402 1.8364992.7357281 1.98 1.72z" fill="#bdc3c7"/><path id="Rectangle-path" d="m25 46h4v10h-4z" fill="#7f8c8d"/><path id="Shape" d="m35 37v8c-.0032948 1.1032019-.8967981 1.9967052-2 2h-12c-1.1032019-.0032948-1.9967052-.8967981-2-2v-8z" fill="#b0d3f0"/><path id="Shape" d="m35 22v11h-16v-11c.0032948-1.1032019.8967981-1.9967052 2-2h12c1.1032019.0032948 1.9967052.8967981 2 2z" fill="#84b5cb"/><rect id="Rectangle-path" fill="#bdc3c7" height="4" rx="1" width="16" x="19" y="55"/><path id="Rectangle-path" d="m19 33h16v4h-16z" fill="#4482c3"/><path id="Rectangle-path" d="m26 37h2v10h-2z" fill="#285680"/><path id="Rectangle-path" d="m3 3h11v29h-11z" fill="#b0d3f0"/><path id="Shape" d="m14 28v25.5c0 3.0375661-2.4624339 5.5-5.5 5.5-3.03756612 0-5.5-2.4624339-5.5-5.5v-25.5z" fill="#ff5364"/><path id="Shape" d="m17 4c0 1.65685425-1.3431458 3-3 3h-11c-1.65685423-.00000002-2.99999996-1.34314577-2.99999996-3s1.34314573-2.99999998 2.99999996-3h11c1.6568542 0 3 1.34314575 3 3z" fill="#90bae1"/><path id="Shape" d="m8.5 56c-1.38071187 0-2.5-1.1192881-2.5-2.5v-2.5c.00000002-.5522847.44771526-1 1-1s.99999998.4477153 1 1v2.5c0 .2761424.22385763.5.5.5.55228475 0 1 .4477153 1 1s-.44771525 1-1 1z" fill="#fff"/><path id="Shape" d="m58 51v5c0 1.6568542-1.3431458 3-3 3h-12c-1.6568542 0-3-1.3431458-3-3v-5z" fill="#f29c1f"/><path id="Shape" d="m58 27.5v3.5h-18v-3.5c.0024399-1.6223797.5285241-3.2006323 1.5-4.5s1.4975601-2.8776203 1.5-4.5v-.5h12v.5c.0024399 1.6223797.5285241 3.2006323 1.5 4.5s1.4975601 2.8776203 1.5 4.5z" fill="#f29c1f"/><path id="Shape" d="m57 15v2c.0273587.5208555-.3694873.96675-.89 1h-14.22c-.5205127-.03325-.9173587-.4791445-.89-1v-2c-.0887607-1.5649037 1.1053652-2.9066183 2.67-3h10.66c1.5646348.0933817 2.7587607 1.4350963 2.67 3z" fill="#ecf0f1"/><path id="Rectangle-path" d="m40 31h18v20h-18z" fill="#ecf0f1"/><g fill="#bdc3c7"><path id="Shape" d="m46 16v2h-2v-2c0-.5522847.4477153-1 1-1s1 .4477153 1 1z"/><path id="Shape" d="m50 16v2h-2v-2c0-.5522847.4477153-1 1-1s1 .4477153 1 1z"/><path id="Shape" d="m54 16v2h-2v-2c0-.5522847.4477153-1 1-1s1 .4477153 1 1z"/><path id="Shape" d="m45 45v6h-2v-6c0-.5522847.4477153-1 1-1s1 .4477153 1 1z"/><path id="Shape" d="m45 31v10c0 .5522847-.4477153 1-1 1s-1-.4477153-1-1v-10z"/></g></g></g></svg>