<svg height="512" viewBox="0 0 128 128" width="512" xmlns="http://www.w3.org/2000/svg"><g><g><g fill="#E80A89"><path d="m24.346 112.502h9v8.998h-9z"/><path d="m94.654 112.502h9v8.998h-9z" transform="matrix(-1 0 0 -1 198.308 234.002)"/><path d="m87 6.5h-46a6 6 0 0 0 -6 6v40.31h58v-40.31a6 6 0 0 0 -6-6zm0 40.31h-46v-34.31h46z"/></g><path d="m11 35h106v80.498h-106z" fill="#6aa8fb"/><path d="m6.5 24.692h115v17.192h-115z" fill="#5c91d9"/><path d="m41.339 56.031h45.321v45.321h-45.321z" fill="#eaeaf0"/><path d="m77.661 74.191h-9.161v-9.16h-9v9.16h-9.161v9h9.161v9.161h9v-9.161h9.161z" fill="#dc4c12"/><path d="m24.346 35.885h9v12h-9z" fill="#eaeaf0"/><path d="m94.654 35.885h9v12h-9z" fill="#eaeaf0" transform="matrix(-1 0 0 -1 198.308 83.769)"/></g><g fill="#0b1523"><path d="m117 54.281a1.751 1.751 0 0 0 -1.75 1.75v3.386a1.75 1.75 0 0 0 3.5 0v-3.386a1.751 1.751 0 0 0 -1.75-1.75z"/><path d="m109.25 82v11.5a1.75 1.75 0 0 0 3.5 0v-11.5a1.75 1.75 0 0 0 -3.5 0z"/><path d="m121.5 22.94h-26.75v-10.44a7.759 7.759 0 0 0 -7.75-7.75h-46a7.759 7.759 0 0 0 -7.75 7.75v4.063a1.75 1.75 0 1 0 3.5 0v-4.063a4.255 4.255 0 0 1 4.25-4.25h46a4.255 4.255 0 0 1 4.25 4.25v10.44h-2.5v-10.44a1.751 1.751 0 0 0 -1.75-1.75h-46a1.751 1.751 0 0 0 -1.75 1.75v10.44h-32.75a1.751 1.751 0 0 0 -1.75 1.75v17.19a1.751 1.751 0 0 0 1.75 1.75h2.75v71.87a1.751 1.751 0 0 0 1.75 1.75h11.6v4.25a1.751 1.751 0 0 0 1.75 1.75h9a1.751 1.751 0 0 0 1.75-1.75v-4.25h57.8v4.25a1.751 1.751 0 0 0 1.75 1.75h9a1.751 1.751 0 0 0 1.75-1.75v-4.25h11.6a1.751 1.751 0 0 0 1.75-1.75v-49.417a1.75 1.75 0 0 0 -3.5 0v47.667h-102.5v-70.12h9.85v4.255a1.751 1.751 0 0 0 1.75 1.75h9a1.751 1.751 0 0 0 1.75-1.75v-4.255h57.8v4.255a1.75 1.75 0 0 0 1.75 1.75h9a1.751 1.751 0 0 0 1.75-1.75v-4.255h9.846v6.287a1.75 1.75 0 0 0 3.5 0v-6.287h2.75a1.751 1.751 0 0 0 1.75-1.75v-17.19a1.751 1.751 0 0 0 -1.746-1.75zm-89.9 96.81h-5.5v-2.5h5.5zm70.3 0h-5.5v-2.5h5.5zm-59.15-105.5h42.5v8.69h-42.5zm-11.15 31.885h-5.5v-4.216c0-.014 0-.026 0-.039s0-.026 0-.039v-4.206h5.5zm64.808 0v-8.5h5.5v4.206.039s0 .025 0 .039v4.216zm23.346-6h-14.354v-4.25a1.75 1.75 0 0 0 -1.75-1.75h-9a1.749 1.749 0 0 0 -1.75 1.75v4.245h-57.8v-4.245a1.75 1.75 0 0 0 -1.75-1.75h-9a1.75 1.75 0 0 0 -1.75 1.75v4.245h-14.35v-13.69h111.5z"/><path d="m48.042 54.281h-6.7a1.75 1.75 0 0 0 -1.75 1.75v45.321a1.751 1.751 0 0 0 1.75 1.75h45.319a1.751 1.751 0 0 0 1.75-1.75v-45.321a1.75 1.75 0 0 0 -1.75-1.75h-29.786a1.75 1.75 0 0 0 0 3.5h28.036v41.819h-41.822v-41.819h4.953a1.75 1.75 0 0 0 0-3.5z"/><path d="m68.5 63.281h-9a1.75 1.75 0 0 0 -1.75 1.75v7.41h-7.411a1.751 1.751 0 0 0 -1.75 1.75v9a1.75 1.75 0 0 0 1.75 1.75h7.411v7.411a1.751 1.751 0 0 0 1.75 1.748h9a1.751 1.751 0 0 0 1.75-1.75v-7.409h7.411a1.75 1.75 0 0 0 1.75-1.75v-9a1.751 1.751 0 0 0 -1.75-1.75h-7.411v-7.41a1.75 1.75 0 0 0 -1.75-1.75zm7.411 12.66v5.5h-7.411a1.751 1.751 0 0 0 -1.75 1.75v7.409h-5.5v-7.409a1.751 1.751 0 0 0 -1.75-1.75h-7.411v-5.5h7.411a1.75 1.75 0 0 0 1.75-1.75v-7.41h5.5v7.41a1.75 1.75 0 0 0 1.75 1.75z"/></g></g></svg>