<svg height="512" viewBox="0 0 58 59" width="512" xmlns="http://www.w3.org/2000/svg"><g id="Page-1" fill="none" fill-rule="evenodd"><g id="011---Vaccine-Injection" fill-rule="nonzero" transform="translate(0 -1)"><path id="Shape" d="m30.758 59.913c-.3265662.0002171-.6326652-.1590355-.8199253-.4265784s-.232087-.6096663-.1200747-.9164216l4.213-11.57c.1171735-.3423922.4101902-.5947627.7661687-.6598885.3559785-.0651259.7193669.067156.9501739.3458855.2308071.2787296.2930144.6604099.1626574.998003l-4.21 11.57c-.143733.3962432-.5204941.659816-.942.659z" fill="#bcc2c6"/><path id="Shape" d="m41.38 44.35-.34.94c-.3629451.9975171-1.1075023 1.8098645-2.0696976 2.2581387s-2.0631146.4957103-3.0603024.1318613l-1.88-.68c-.9975171-.3629451-1.8098645-1.1075023-2.2581387-2.0696976s-.4957103-2.0631146-.1318613-3.0603024l.34-.94 5.145.19z" fill="#94a4a4"/><path id="Shape" d="m51.842 7.413-2.26 6.177-4.114-1.492 2.249-6.188z" fill="#7f8b8c"/><path id="Shape" d="m54.46 17.19-.69 1.88-7.8-2.16-7.23-3.32.68-1.88c.3838619-1.0357251 1.5318628-1.5672897 2.57-1.19l3.76 1.37 3.75 1.36 3.76 1.37c1.0408972.3784893 1.578079 1.5289537 1.2 2.57z" fill="#94a4a4"/><path id="Shape" d="m53.77 19.07-2.94 8.09c-.6242114-.6880362-1.4169136-1.2015694-2.3-1.49-3.13-1.14-3.82.74-6.95-.4-1.1412648-.3892978-2.1289589-1.1318197-2.82-2.12-.08-.09-.15-.19-.23-.28-.6549755-.8194262-1.5339414-1.4308808-2.53-1.76l.04-.11.02-.04.97-2.67.68-1.88 1.03-2.82z" fill="#67b8cb"/><path id="Shape" d="m50.83 27.16-5.95 16.34c-.1802914.4983244-.5518988.9041553-1.032453 1.127538-.4805543.2233826-1.0303591.2458644-1.527547.062462l-.94-.34-9.4-3.42-.94-.34c-.4990477-.1824182-.9049945-.5559227-1.1282527-1.0380853-.2232581-.4821627-.2454749-1.0333476-.0617473-1.5319147l.34-.94.68-1.87 1.03-2.82.68-1.88 1.03-2.82.68-1.88 1.08-2.98.02-.04.61-1.68c.9960586.3291192 1.8750245.9405738 2.53 1.76.08.09.15.19.23.28.6910411.9881803 1.6787352 1.7307022 2.82 2.12 3.13 1.14 3.82-.74 6.95.4.8830864.2884306 1.6757886.8019638 2.3 1.49z" fill="#ff5364"/><path id="Shape" d="m58 7.11c-.0017589.23177625-.0423199.46162161-.12.68-.1811836.49765118-.5529001.90278044-1.0331565 1.12602463s-1.0295952.24626171-1.5268435.06397537l-3.76-1.36-7.52-2.74c-.7938362-.28951443-1.3214904-1.0450193-1.32-1.89.0009239-.22859506.0415268-.45529438.12-.67.3784893-1.04089722 1.5289537-1.57807903 2.57-1.2l11.27 4.11c.7918949.2863004 1.3196417 1.03793985 1.32 1.88z" fill="#94a4a4"/><path id="Shape" d="m40.19 18.38c-.1879533.5189865-.7608633.7875381-1.28.6l-1.88-.69.68-1.88 1.88.69c.2502437.0889182.4544996.2742776.5672173.5147419.1127176.2404643.1245227.5160351.0327827.7652581z" fill="#285680"/><path id="Shape" d="m38.53 22.87c.0015564.0172822-.0019163.0346458-.01.05-.0159469.0419013-.0360471.0821016-.06.12-.1705178.3279151-.5104086.5326221-.88.53-.1163156.0044793-.2322434-.0159786-.34-.06l-1.87-.68.02-.04.61-1.68.04-.11.02-.04 1.86.67c.502161.1837617.7709017.7300543.61 1.24z" fill="#802d40"/><path id="Shape" d="m36.77 27.77c-.1431502.3959474-.5189699.6598209-.94.66-.1159264-.0004562-.2309197-.0207492-.34-.06l-1.88-.68.68-1.88 1.88.68c.5189865.1879533.7875381.7608633.6 1.28z" fill="#802d40"/><path id="Shape" d="m35.06 32.47c-.1431502.3959474-.5189699.6598209-.94.66-.1159264-.0004562-.2309197-.0207492-.34-.06l-1.88-.68.68-1.88 1.88.68c.5189865.1879533.7875381.7608633.6 1.28z" fill="#802d40"/><path id="Shape" d="m33.35 37.17c-.1431502.3959474-.5189699.6598209-.94.66-.1159264-.0004562-.2309197-.0207492-.34-.06l-1.88-.69.68-1.87 1.88.68c.5189865.1879533.7875381.7608633.6 1.28z" fill="#802d40"/><g fill="#fff"><circle id="Oval" cx="40.871" cy="28.203" r="1"/><circle id="Oval" cx="38.048" cy="38.882" r="1"/><circle id="Oval" cx="42.833" cy="37.431" r="1"/><circle id="Oval" cx="45.911" cy="28.973" r="1"/><circle id="Oval" cx="43.604" cy="32.39" r="1"/><circle id="Oval" cx="39.161" cy="32.901" r="1"/></g><path id="Shape" d="m5.78 35c-2.92 0-3.48-1.31-5.5-1.81.79114533-2.4930068 3.10447178-4.1875589 5.72-4.19 1.10116878-.0081672 1.99183278-.8988312 2-2v-4h10v4c.0032948 1.1032019.8967981 1.9967052 2 2 1.5919979-.0048139 3.1193899.6291979 4.24 1.76.6857944.6758593 1.1941629 1.5105453 1.48 2.43-2.02.5-2.57 1.81-5.49 1.81z" fill="#67b8cb"/><path id="Shape" d="m26 35v7h-26v-7c.00034479-.6140927.09477364-1.2245078.28-1.81 2.02.5 2.58 1.81 5.5 1.81 3.62 0 3.62-2 7.23-2s3.61 2 7.22 2c2.92 0 3.47-1.31 5.49-1.81.1852264.5854922.2796552 1.1959073.28 1.81z" fill="#ff5364"/><path id="Shape" d="m26 50v5c0 2.209139-1.790861 4-4 4h-18c-2.209139 0-4-1.790861-4-4v-5z" fill="#ff5364"/><rect id="Rectangle-path" fill="#bcc2c6" height="8" rx="1" width="16" x="5" y="17"/><path id="Rectangle-path" d="m9 17h2v8h-2z" fill="#94a4a4"/><path id="Rectangle-path" d="m15 17h2v8h-2z" fill="#94a4a4"/><path id="Rectangle-path" d="m0 40h26v12h-26z" fill="#ebeff0"/><path id="Shape" d="m19 45h-12c-.55228475 0-1-.4477153-1-1s.44771525-1 1-1h12c.5522847 0 1 .4477153 1 1s-.4477153 1-1 1z" fill="#bcc2c6"/><path id="Shape" d="m18 49h-10c-.55228475 0-1-.4477153-1-1s.44771525-1 1-1h10c.5522847 0 1 .4477153 1 1s-.4477153 1-1 1z" fill="#bcc2c6"/></g></g></svg>